<?xml version="1.0" encoding="UTF-8"?>
<!-- Generated by Pixelmator Pro 2.4.5 -->
<svg width="12" height="12" viewBox="0 0 12 12" xmlns="http://www.w3.org/2000/svg" xmlns:xlink="http://www.w3.org/1999/xlink">
    <path id="path1" fill="#e4e4e4" fill-rule="evenodd" stroke="none" d="M 7.42618 6.00003 L 11.7046 1.721581 C 12.0985 1.32775 12.0985 0.689213 11.7046 0.295433 C 11.3108 -0.098403 10.6723 -0.098403 10.2785 0.295433 L 5.99998 4.57394 L 1.72148 0.295377 C 1.32765 -0.098459 0.68917 -0.098459 0.295334 0.295377 C -0.098445 0.689213 -0.098445 1.32775 0.295334 1.72153 L 4.57383 5.99997 L 0.295334 10.2785 C -0.098445 10.6723 -0.098445 11.3108 0.295334 11.7046 C 0.68917 12.0985 1.32765 12.0985 1.72148 11.7046 L 5.99998 7.42612 L 10.2785 11.7046 C 10.6723 12.0985 11.3108 12.0985 11.7046 11.7046 C 12.0985 11.3108 12.0985 10.6723 11.7046 10.2785 L 7.42618 6.00003 Z"/>
</svg>
